<svg xmlns="http://www.w3.org/2000/svg" width="760" height="480" viewBox="0 0 760 480" font-family="system-ui,Segoe UI,Helvetica,Arial,sans-serif">
<rect width="760" height="480" fill="#ffffff"/>
<text x="380.0" y="26" text-anchor="middle" font-size="17" font-weight="700" fill="#222">Where the languages land — compute speed vs memory</text>
<line x1="70" y1="420" x2="730" y2="420" stroke="#888" stroke-width="1"/>
<line x1="70" y1="50" x2="70" y2="420" stroke="#888" stroke-width="1"/>
<line x1="70.0" y1="50" x2="70.0" y2="420" stroke="#eee" stroke-width="1"/>
<text x="70.0" y="438" text-anchor="middle" font-size="12" fill="#555">1×</text>
<line x1="200.4" y1="50" x2="200.4" y2="420" stroke="#eee" stroke-width="1"/>
<text x="200.4" y="438" text-anchor="middle" font-size="12" fill="#555">2×</text>
<line x1="372.8" y1="50" x2="372.8" y2="420" stroke="#eee" stroke-width="1"/>
<text x="372.8" y="438" text-anchor="middle" font-size="12" fill="#555">5×</text>
<line x1="503.2" y1="50" x2="503.2" y2="420" stroke="#eee" stroke-width="1"/>
<text x="503.2" y="438" text-anchor="middle" font-size="12" fill="#555">10×</text>
<line x1="633.6" y1="50" x2="633.6" y2="420" stroke="#eee" stroke-width="1"/>
<text x="633.6" y="438" text-anchor="middle" font-size="12" fill="#555">20×</text>
<line x1="70" y1="420.0" x2="730" y2="420.0" stroke="#eee" stroke-width="1"/>
<text x="60" y="424.0" text-anchor="end" font-size="12" fill="#555">0</text>
<line x1="70" y1="357.0" x2="730" y2="357.0" stroke="#eee" stroke-width="1"/>
<text x="60" y="361.0" text-anchor="end" font-size="12" fill="#555">20</text>
<line x1="70" y1="294.0" x2="730" y2="294.0" stroke="#eee" stroke-width="1"/>
<text x="60" y="298.0" text-anchor="end" font-size="12" fill="#555">40</text>
<line x1="70" y1="231.1" x2="730" y2="231.1" stroke="#eee" stroke-width="1"/>
<text x="60" y="235.1" text-anchor="end" font-size="12" fill="#555">60</text>
<line x1="70" y1="168.1" x2="730" y2="168.1" stroke="#eee" stroke-width="1"/>
<text x="60" y="172.1" text-anchor="end" font-size="12" fill="#555">80</text>
<line x1="70" y1="105.1" x2="730" y2="105.1" stroke="#eee" stroke-width="1"/>
<text x="60" y="109.1" text-anchor="end" font-size="12" fill="#555">100</text>
<text x="400.0" y="464" text-anchor="middle" font-size="13" fill="#333">compute slowdown vs the fastest — startup excluded, log scale — left is faster</text>
<text x="18" y="235.0" text-anchor="middle" font-size="13" fill="#333" transform="rotate(-90 18 235.0)">base memory (MB) — lower is lighter</text>
<text x="78" y="412" font-size="11" fill="#aaa">↙ fast &amp; light</text>
<circle cx="688.0" cy="389.7" r="7" fill="#2980b9" fill-opacity="0.85" stroke="#fff" stroke-width="1.5"/>
<text x="677.0" y="393.7" text-anchor="end" font-size="13" font-weight="600" fill="#2980b9">Python <tspan font-weight="400" fill="#777">(27× · 10MB)</tspan></text>
<circle cx="532.2" cy="359.3" r="7" fill="#d35400" fill-opacity="0.85" stroke="#fff" stroke-width="1.5"/>
<text x="521.2" y="363.3" text-anchor="end" font-size="13" font-weight="600" fill="#d35400">Ruby <tspan font-weight="400" fill="#777">(12× · 19MB)</tspan></text>
<circle cx="273.7" cy="346.2" r="7" fill="#c0392b" fill-opacity="0.85" stroke="#fff" stroke-width="1.5"/>
<text x="284.7" y="350.2" text-anchor="start" font-size="13" font-weight="600" fill="#c0392b">Brood <tspan font-weight="400" fill="#777">(3× · 23MB)</tspan></text>
<circle cx="70.0" cy="338.7" r="7" fill="#16a085" fill-opacity="0.85" stroke="#fff" stroke-width="1.5"/>
<text x="81.0" y="342.7" text-anchor="start" font-size="13" font-weight="600" fill="#16a085">.NET <tspan font-weight="400" fill="#777">(1× · 26MB)</tspan></text>
<circle cx="250.5" cy="286.4" r="7" fill="#27ae60" fill-opacity="0.85" stroke="#fff" stroke-width="1.5"/>
<text x="261.5" y="290.4" text-anchor="start" font-size="13" font-weight="600" fill="#27ae60">Node <tspan font-weight="400" fill="#777">(3× · 42MB)</tspan></text>
<circle cx="306.1" cy="198.2" r="7" fill="#8e44ad" fill-opacity="0.85" stroke="#fff" stroke-width="1.5"/>
<text x="317.1" y="202.2" text-anchor="start" font-size="13" font-weight="600" fill="#8e44ad">Elixir <tspan font-weight="400" fill="#777">(4× · 70MB)</tspan></text>
<circle cx="461.6" cy="98.3" r="7" fill="#e67e22" fill-opacity="0.85" stroke="#fff" stroke-width="1.5"/>
<text x="472.6" y="102.3" text-anchor="start" font-size="13" font-weight="600" fill="#e67e22">Clojure <tspan font-weight="400" fill="#777">(8× · 102MB)</tspan></text>
</svg>