<svg xmlns="http://www.w3.org/2000/svg" width="760" height="480" viewBox="0 0 760 480" font-family="system-ui,Segoe UI,Helvetica,Arial,sans-serif">
<rect width="760" height="480" fill="#ffffff"/>
<text x="380.0" y="26" text-anchor="middle" font-size="17" font-weight="700" fill="#222">Where the languages land — compute speed vs memory</text>
<line x1="70" y1="420" x2="730" y2="420" stroke="#888" stroke-width="1"/>
<line x1="70" y1="50" x2="70" y2="420" stroke="#888" stroke-width="1"/>
<line x1="70.0" y1="50" x2="70.0" y2="420" stroke="#eee" stroke-width="1"/>
<text x="70.0" y="438" text-anchor="middle" font-size="12" fill="#555">1×</text>
<line x1="206.3" y1="50" x2="206.3" y2="420" stroke="#eee" stroke-width="1"/>
<text x="206.3" y="438" text-anchor="middle" font-size="12" fill="#555">2×</text>
<line x1="386.5" y1="50" x2="386.5" y2="420" stroke="#eee" stroke-width="1"/>
<text x="386.5" y="438" text-anchor="middle" font-size="12" fill="#555">5×</text>
<line x1="522.8" y1="50" x2="522.8" y2="420" stroke="#eee" stroke-width="1"/>
<text x="522.8" y="438" text-anchor="middle" font-size="12" fill="#555">10×</text>
<line x1="659.1" y1="50" x2="659.1" y2="420" stroke="#eee" stroke-width="1"/>
<text x="659.1" y="438" text-anchor="middle" font-size="12" fill="#555">20×</text>
<line x1="70" y1="420.0" x2="730" y2="420.0" stroke="#eee" stroke-width="1"/>
<text x="60" y="424.0" text-anchor="end" font-size="12" fill="#555">0</text>
<line x1="70" y1="335.5" x2="730" y2="335.5" stroke="#eee" stroke-width="1"/>
<text x="60" y="339.5" text-anchor="end" font-size="12" fill="#555">20</text>
<line x1="70" y1="251.0" x2="730" y2="251.0" stroke="#eee" stroke-width="1"/>
<text x="60" y="255.0" text-anchor="end" font-size="12" fill="#555">40</text>
<line x1="70" y1="166.4" x2="730" y2="166.4" stroke="#eee" stroke-width="1"/>
<text x="60" y="170.4" text-anchor="end" font-size="12" fill="#555">60</text>
<line x1="70" y1="81.9" x2="730" y2="81.9" stroke="#eee" stroke-width="1"/>
<text x="60" y="85.9" text-anchor="end" font-size="12" fill="#555">80</text>
<text x="400.0" y="464" text-anchor="middle" font-size="13" fill="#333">compute slowdown vs the fastest — startup excluded, log scale — left is faster</text>
<text x="18" y="235.0" text-anchor="middle" font-size="13" fill="#333" transform="rotate(-90 18 235.0)">base memory (MB) — lower is lighter</text>
<text x="78" y="412" font-size="11" fill="#aaa">↙ fast &amp; light</text>
<circle cx="686.1" cy="378.8" r="7" fill="#2980b9" fill-opacity="0.85" stroke="#fff" stroke-width="1.5"/>
<text x="675.1" y="382.8" text-anchor="end" font-size="13" font-weight="600" fill="#2980b9">Python <tspan font-weight="400" fill="#777">(23× · 10MB)</tspan></text>
<circle cx="571.3" cy="356.1" r="7" fill="#c0392b" fill-opacity="0.85" stroke="#fff" stroke-width="1.5"/>
<text x="560.3" y="360.1" text-anchor="end" font-size="13" font-weight="600" fill="#c0392b">Brood <tspan font-weight="400" fill="#777">(13× · 15MB)</tspan></text>
<circle cx="523.5" cy="320.6" r="7" fill="#d35400" fill-opacity="0.85" stroke="#fff" stroke-width="1.5"/>
<text x="534.5" y="324.6" text-anchor="start" font-size="13" font-weight="600" fill="#d35400">Ruby <tspan font-weight="400" fill="#777">(10× · 24MB)</tspan></text>
<circle cx="70.0" cy="310.4" r="7" fill="#16a085" fill-opacity="0.85" stroke="#fff" stroke-width="1.5"/>
<text x="81.0" y="314.4" text-anchor="start" font-size="13" font-weight="600" fill="#16a085">.NET <tspan font-weight="400" fill="#777">(1× · 26MB)</tspan></text>
<circle cx="232.6" cy="237.5" r="7" fill="#27ae60" fill-opacity="0.85" stroke="#fff" stroke-width="1.5"/>
<text x="243.6" y="241.5" text-anchor="start" font-size="13" font-weight="600" fill="#27ae60">Node <tspan font-weight="400" fill="#777">(2× · 43MB)</tspan></text>
<circle cx="335.6" cy="98.3" r="7" fill="#8e44ad" fill-opacity="0.85" stroke="#fff" stroke-width="1.5"/>
<text x="346.6" y="102.3" text-anchor="start" font-size="13" font-weight="600" fill="#8e44ad">Elixir <tspan font-weight="400" fill="#777">(4× · 76MB)</tspan></text>
</svg>