<svg xmlns="http://www.w3.org/2000/svg" width="760" height="480" viewBox="0 0 760 480" font-family="system-ui,Segoe UI,Helvetica,Arial,sans-serif">
<rect width="760" height="480" fill="#ffffff"/>
<text x="380.0" y="26" text-anchor="middle" font-size="17" font-weight="700" fill="#222">Where the languages land — compute speed vs memory</text>
<line x1="70" y1="420" x2="730" y2="420" stroke="#888" stroke-width="1"/>
<line x1="70" y1="50" x2="70" y2="420" stroke="#888" stroke-width="1"/>
<line x1="70.0" y1="50" x2="70.0" y2="420" stroke="#eee" stroke-width="1"/>
<text x="70.0" y="438" text-anchor="middle" font-size="12" fill="#555">1×</text>
<line x1="221.5" y1="50" x2="221.5" y2="420" stroke="#eee" stroke-width="1"/>
<text x="221.5" y="438" text-anchor="middle" font-size="12" fill="#555">2×</text>
<line x1="421.8" y1="50" x2="421.8" y2="420" stroke="#eee" stroke-width="1"/>
<text x="421.8" y="438" text-anchor="middle" font-size="12" fill="#555">5×</text>
<line x1="573.4" y1="50" x2="573.4" y2="420" stroke="#eee" stroke-width="1"/>
<text x="573.4" y="438" text-anchor="middle" font-size="12" fill="#555">10×</text>
<line x1="724.9" y1="50" x2="724.9" y2="420" stroke="#eee" stroke-width="1"/>
<text x="724.9" y="438" text-anchor="middle" font-size="12" fill="#555">20×</text>
<line x1="70" y1="420.0" x2="730" y2="420.0" stroke="#eee" stroke-width="1"/>
<text x="60" y="424.0" text-anchor="end" font-size="12" fill="#555">0</text>
<line x1="70" y1="338.2" x2="730" y2="338.2" stroke="#eee" stroke-width="1"/>
<text x="60" y="342.2" text-anchor="end" font-size="12" fill="#555">20</text>
<line x1="70" y1="256.3" x2="730" y2="256.3" stroke="#eee" stroke-width="1"/>
<text x="60" y="260.3" text-anchor="end" font-size="12" fill="#555">40</text>
<line x1="70" y1="174.5" x2="730" y2="174.5" stroke="#eee" stroke-width="1"/>
<text x="60" y="178.5" text-anchor="end" font-size="12" fill="#555">60</text>
<line x1="70" y1="92.7" x2="730" y2="92.7" stroke="#eee" stroke-width="1"/>
<text x="60" y="96.7" text-anchor="end" font-size="12" fill="#555">80</text>
<text x="400.0" y="464" text-anchor="middle" font-size="13" fill="#333">compute slowdown vs the fastest — startup excluded, log scale — left is faster</text>
<text x="18" y="235.0" text-anchor="middle" font-size="13" fill="#333" transform="rotate(-90 18 235.0)">base memory (MB) — lower is lighter</text>
<text x="78" y="412" font-size="11" fill="#aaa">↙ fast &amp; light</text>
<circle cx="634.6" cy="380.0" r="7" fill="#2980b9" fill-opacity="0.85" stroke="#fff" stroke-width="1.5"/>
<text x="623.6" y="384.0" text-anchor="end" font-size="13" font-weight="600" fill="#2980b9">Python <tspan font-weight="400" fill="#777">(13× · 10MB)</tspan></text>
<circle cx="681.2" cy="360.5" r="7" fill="#c0392b" fill-opacity="0.85" stroke="#fff" stroke-width="1.5"/>
<text x="670.2" y="364.5" text-anchor="end" font-size="13" font-weight="600" fill="#c0392b">Brood <tspan font-weight="400" fill="#777">(16× · 15MB)</tspan></text>
<circle cx="466.4" cy="323.7" r="7" fill="#d35400" fill-opacity="0.85" stroke="#fff" stroke-width="1.5"/>
<text x="477.4" y="327.7" text-anchor="start" font-size="13" font-weight="600" fill="#d35400">Ruby <tspan font-weight="400" fill="#777">(6× · 24MB)</tspan></text>
<circle cx="70.0" cy="314.5" r="7" fill="#16a085" fill-opacity="0.85" stroke="#fff" stroke-width="1.5"/>
<text x="81.0" y="318.5" text-anchor="start" font-size="13" font-weight="600" fill="#16a085">.NET <tspan font-weight="400" fill="#777">(1× · 26MB)</tspan></text>
<circle cx="118.5" cy="243.2" r="7" fill="#27ae60" fill-opacity="0.85" stroke="#fff" stroke-width="1.5"/>
<text x="129.5" y="247.2" text-anchor="start" font-size="13" font-weight="600" fill="#27ae60">Node <tspan font-weight="400" fill="#777">(1× · 43MB)</tspan></text>
<circle cx="542.7" cy="98.3" r="7" fill="#8e44ad" fill-opacity="0.85" stroke="#fff" stroke-width="1.5"/>
<text x="531.7" y="102.3" text-anchor="end" font-size="13" font-weight="600" fill="#8e44ad">Elixir <tspan font-weight="400" fill="#777">(9× · 79MB)</tspan></text>
</svg>