<svg xmlns="http://www.w3.org/2000/svg" width="760" height="480" viewBox="0 0 760 480" font-family="system-ui,Segoe UI,Helvetica,Arial,sans-serif">
<rect width="760" height="480" fill="#ffffff"/>
<text x="380.0" y="26" text-anchor="middle" font-size="17" font-weight="700" fill="#222">Where the languages land — compute speed vs memory</text>
<line x1="70" y1="420" x2="730" y2="420" stroke="#888" stroke-width="1"/>
<line x1="70" y1="50" x2="70" y2="420" stroke="#888" stroke-width="1"/>
<line x1="70.0" y1="50" x2="70.0" y2="420" stroke="#eee" stroke-width="1"/>
<text x="70.0" y="438" text-anchor="middle" font-size="12" fill="#555">1×</text>
<line x1="198.2" y1="50" x2="198.2" y2="420" stroke="#eee" stroke-width="1"/>
<text x="198.2" y="438" text-anchor="middle" font-size="12" fill="#555">2×</text>
<line x1="367.6" y1="50" x2="367.6" y2="420" stroke="#eee" stroke-width="1"/>
<text x="367.6" y="438" text-anchor="middle" font-size="12" fill="#555">5×</text>
<line x1="495.7" y1="50" x2="495.7" y2="420" stroke="#eee" stroke-width="1"/>
<text x="495.7" y="438" text-anchor="middle" font-size="12" fill="#555">10×</text>
<line x1="623.9" y1="50" x2="623.9" y2="420" stroke="#eee" stroke-width="1"/>
<text x="623.9" y="438" text-anchor="middle" font-size="12" fill="#555">20×</text>
<line x1="70" y1="420.0" x2="730" y2="420.0" stroke="#eee" stroke-width="1"/>
<text x="60" y="424.0" text-anchor="end" font-size="12" fill="#555">0</text>
<line x1="70" y1="357.7" x2="730" y2="357.7" stroke="#eee" stroke-width="1"/>
<text x="60" y="361.7" text-anchor="end" font-size="12" fill="#555">20</text>
<line x1="70" y1="295.4" x2="730" y2="295.4" stroke="#eee" stroke-width="1"/>
<text x="60" y="299.4" text-anchor="end" font-size="12" fill="#555">40</text>
<line x1="70" y1="233.1" x2="730" y2="233.1" stroke="#eee" stroke-width="1"/>
<text x="60" y="237.1" text-anchor="end" font-size="12" fill="#555">60</text>
<line x1="70" y1="170.8" x2="730" y2="170.8" stroke="#eee" stroke-width="1"/>
<text x="60" y="174.8" text-anchor="end" font-size="12" fill="#555">80</text>
<line x1="70" y1="108.5" x2="730" y2="108.5" stroke="#eee" stroke-width="1"/>
<text x="60" y="112.5" text-anchor="end" font-size="12" fill="#555">100</text>
<text x="400.0" y="464" text-anchor="middle" font-size="13" fill="#333">compute slowdown vs the fastest — startup excluded, log scale — left is faster</text>
<text x="18" y="235.0" text-anchor="middle" font-size="13" fill="#333" transform="rotate(-90 18 235.0)">base memory (MB) — lower is lighter</text>
<text x="78" y="412" font-size="11" fill="#aaa">↙ fast &amp; light</text>
<circle cx="688.7" cy="389.7" r="7" fill="#2980b9" fill-opacity="0.85" stroke="#fff" stroke-width="1.5"/>
<text x="677.7" y="393.7" text-anchor="end" font-size="13" font-weight="600" fill="#2980b9">Python <tspan font-weight="400" fill="#777">(28× · 10MB)</tspan></text>
<circle cx="532.5" cy="360.1" r="7" fill="#d35400" fill-opacity="0.85" stroke="#fff" stroke-width="1.5"/>
<text x="521.5" y="364.1" text-anchor="end" font-size="13" font-weight="600" fill="#d35400">Ruby <tspan font-weight="400" fill="#777">(12× · 19MB)</tspan></text>
<circle cx="281.9" cy="341.6" r="7" fill="#c0392b" fill-opacity="0.85" stroke="#fff" stroke-width="1.5"/>
<text x="292.9" y="345.6" text-anchor="start" font-size="13" font-weight="600" fill="#c0392b">Brood <tspan font-weight="400" fill="#777">(3× · 25MB)</tspan></text>
<circle cx="70.0" cy="340.0" r="7" fill="#16a085" fill-opacity="0.85" stroke="#fff" stroke-width="1.5"/>
<text x="81.0" y="344.0" text-anchor="start" font-size="13" font-weight="600" fill="#16a085">.NET <tspan font-weight="400" fill="#777">(1× · 26MB)</tspan></text>
<circle cx="254.6" cy="288.1" r="7" fill="#27ae60" fill-opacity="0.85" stroke="#fff" stroke-width="1.5"/>
<text x="265.6" y="292.1" text-anchor="start" font-size="13" font-weight="600" fill="#27ae60">Node <tspan font-weight="400" fill="#777">(3× · 42MB)</tspan></text>
<circle cx="301.1" cy="202.5" r="7" fill="#8e44ad" fill-opacity="0.85" stroke="#fff" stroke-width="1.5"/>
<text x="312.1" y="206.5" text-anchor="start" font-size="13" font-weight="600" fill="#8e44ad">Elixir <tspan font-weight="400" fill="#777">(3× · 70MB)</tspan></text>
<circle cx="473.1" cy="98.3" r="7" fill="#e67e22" fill-opacity="0.85" stroke="#fff" stroke-width="1.5"/>
<text x="484.1" y="102.3" text-anchor="start" font-size="13" font-weight="600" fill="#e67e22">Clojure <tspan font-weight="400" fill="#777">(9× · 103MB)</tspan></text>
</svg>