<svg xmlns="http://www.w3.org/2000/svg" width="760" height="480" viewBox="0 0 760 480" font-family="system-ui,Segoe UI,Helvetica,Arial,sans-serif">
<rect width="760" height="480" fill="#ffffff"/>
<text x="380.0" y="26" text-anchor="middle" font-size="17" font-weight="700" fill="#222">Where the languages land — compute speed vs memory</text>
<line x1="70" y1="420" x2="730" y2="420" stroke="#888" stroke-width="1"/>
<line x1="70" y1="50" x2="70" y2="420" stroke="#888" stroke-width="1"/>
<line x1="70.0" y1="50" x2="70.0" y2="420" stroke="#eee" stroke-width="1"/>
<text x="70.0" y="438" text-anchor="middle" font-size="12" fill="#555">1×</text>
<line x1="171.8" y1="50" x2="171.8" y2="420" stroke="#eee" stroke-width="1"/>
<text x="171.8" y="438" text-anchor="middle" font-size="12" fill="#555">2×</text>
<line x1="306.4" y1="50" x2="306.4" y2="420" stroke="#eee" stroke-width="1"/>
<text x="306.4" y="438" text-anchor="middle" font-size="12" fill="#555">5×</text>
<line x1="408.2" y1="50" x2="408.2" y2="420" stroke="#eee" stroke-width="1"/>
<text x="408.2" y="438" text-anchor="middle" font-size="12" fill="#555">10×</text>
<line x1="510.0" y1="50" x2="510.0" y2="420" stroke="#eee" stroke-width="1"/>
<text x="510.0" y="438" text-anchor="middle" font-size="12" fill="#555">20×</text>
<line x1="644.6" y1="50" x2="644.6" y2="420" stroke="#eee" stroke-width="1"/>
<text x="644.6" y="438" text-anchor="middle" font-size="12" fill="#555">50×</text>
<line x1="70" y1="420.0" x2="730" y2="420.0" stroke="#eee" stroke-width="1"/>
<text x="60" y="424.0" text-anchor="end" font-size="12" fill="#555">0</text>
<line x1="70" y1="349.8" x2="730" y2="349.8" stroke="#eee" stroke-width="1"/>
<text x="60" y="353.8" text-anchor="end" font-size="12" fill="#555">20</text>
<line x1="70" y1="279.5" x2="730" y2="279.5" stroke="#eee" stroke-width="1"/>
<text x="60" y="283.5" text-anchor="end" font-size="12" fill="#555">40</text>
<line x1="70" y1="209.3" x2="730" y2="209.3" stroke="#eee" stroke-width="1"/>
<text x="60" y="213.3" text-anchor="end" font-size="12" fill="#555">60</text>
<line x1="70" y1="139.1" x2="730" y2="139.1" stroke="#eee" stroke-width="1"/>
<text x="60" y="143.1" text-anchor="end" font-size="12" fill="#555">80</text>
<line x1="70" y1="68.8" x2="730" y2="68.8" stroke="#eee" stroke-width="1"/>
<text x="60" y="72.8" text-anchor="end" font-size="12" fill="#555">100</text>
<text x="400.0" y="464" text-anchor="middle" font-size="13" fill="#333">compute slowdown vs the fastest — startup excluded, log scale — left is faster</text>
<text x="18" y="235.0" text-anchor="middle" font-size="13" fill="#333" transform="rotate(-90 18 235.0)">base memory (MB) — lower is lighter</text>
<text x="78" y="412" font-size="11" fill="#aaa">↙ fast &amp; light</text>
<circle cx="399.9" cy="386.6" r="7" fill="#2980b9" fill-opacity="0.85" stroke="#fff" stroke-width="1.5"/>
<text x="410.9" y="390.6" text-anchor="start" font-size="13" font-weight="600" fill="#2980b9">Python <tspan font-weight="400" fill="#777">(9× · 10MB)</tspan></text>
<circle cx="697.2" cy="380.2" r="7" fill="#c0392b" fill-opacity="0.85" stroke="#fff" stroke-width="1.5"/>
<text x="686.2" y="384.2" text-anchor="end" font-size="13" font-weight="600" fill="#c0392b">Brood <tspan font-weight="400" fill="#777">(72× · 11MB)</tspan></text>
<circle cx="299.4" cy="338.5" r="7" fill="#d35400" fill-opacity="0.85" stroke="#fff" stroke-width="1.5"/>
<text x="310.4" y="342.5" text-anchor="start" font-size="13" font-weight="600" fill="#d35400">Ruby <tspan font-weight="400" fill="#777">(5× · 23MB)</tspan></text>
<circle cx="70.0" cy="330.6" r="7" fill="#16a085" fill-opacity="0.85" stroke="#fff" stroke-width="1.5"/>
<text x="81.0" y="334.6" text-anchor="start" font-size="13" font-weight="600" fill="#16a085">.NET <tspan font-weight="400" fill="#777">(1× · 25MB)</tspan></text>
<circle cx="132.4" cy="263.1" r="7" fill="#27ae60" fill-opacity="0.85" stroke="#fff" stroke-width="1.5"/>
<text x="143.4" y="267.1" text-anchor="start" font-size="13" font-weight="600" fill="#27ae60">Node <tspan font-weight="400" fill="#777">(2× · 45MB)</tspan></text>
<circle cx="242.6" cy="98.3" r="7" fill="#8e44ad" fill-opacity="0.85" stroke="#fff" stroke-width="1.5"/>
<text x="253.6" y="102.3" text-anchor="start" font-size="13" font-weight="600" fill="#8e44ad">Elixir <tspan font-weight="400" fill="#777">(3× · 92MB)</tspan></text>
</svg>