<svg xmlns="http://www.w3.org/2000/svg" width="760" height="480" viewBox="0 0 760 480" font-family="system-ui,Segoe UI,Helvetica,Arial,sans-serif">
<rect width="760" height="480" fill="#ffffff"/>
<text x="380.0" y="26" text-anchor="middle" font-size="17" font-weight="700" fill="#222">Where the languages land — compute speed vs memory</text>
<line x1="70" y1="420" x2="730" y2="420" stroke="#888" stroke-width="1"/>
<line x1="70" y1="50" x2="70" y2="420" stroke="#888" stroke-width="1"/>
<line x1="70.0" y1="50" x2="70.0" y2="420" stroke="#eee" stroke-width="1"/>
<text x="70.0" y="438" text-anchor="middle" font-size="12" fill="#555">1×</text>
<line x1="196.2" y1="50" x2="196.2" y2="420" stroke="#eee" stroke-width="1"/>
<text x="196.2" y="438" text-anchor="middle" font-size="12" fill="#555">2×</text>
<line x1="362.9" y1="50" x2="362.9" y2="420" stroke="#eee" stroke-width="1"/>
<text x="362.9" y="438" text-anchor="middle" font-size="12" fill="#555">5×</text>
<line x1="489.1" y1="50" x2="489.1" y2="420" stroke="#eee" stroke-width="1"/>
<text x="489.1" y="438" text-anchor="middle" font-size="12" fill="#555">10×</text>
<line x1="615.3" y1="50" x2="615.3" y2="420" stroke="#eee" stroke-width="1"/>
<text x="615.3" y="438" text-anchor="middle" font-size="12" fill="#555">20×</text>
<line x1="70" y1="420.0" x2="730" y2="420.0" stroke="#eee" stroke-width="1"/>
<text x="60" y="424.0" text-anchor="end" font-size="12" fill="#555">0</text>
<line x1="70" y1="339.5" x2="730" y2="339.5" stroke="#eee" stroke-width="1"/>
<text x="60" y="343.5" text-anchor="end" font-size="12" fill="#555">20</text>
<line x1="70" y1="259.0" x2="730" y2="259.0" stroke="#eee" stroke-width="1"/>
<text x="60" y="263.0" text-anchor="end" font-size="12" fill="#555">40</text>
<line x1="70" y1="178.5" x2="730" y2="178.5" stroke="#eee" stroke-width="1"/>
<text x="60" y="182.5" text-anchor="end" font-size="12" fill="#555">60</text>
<line x1="70" y1="98.1" x2="730" y2="98.1" stroke="#eee" stroke-width="1"/>
<text x="60" y="102.1" text-anchor="end" font-size="12" fill="#555">80</text>
<text x="400.0" y="464" text-anchor="middle" font-size="13" fill="#333">compute slowdown vs the fastest — startup excluded, log scale — left is faster</text>
<text x="18" y="235.0" text-anchor="middle" font-size="13" fill="#333" transform="rotate(-90 18 235.0)">base memory (MB) — lower is lighter</text>
<text x="78" y="412" font-size="11" fill="#aaa">↙ fast &amp; light</text>
<circle cx="689.4" cy="380.7" r="7" fill="#2980b9" fill-opacity="0.85" stroke="#fff" stroke-width="1.5"/>
<text x="678.4" y="384.7" text-anchor="end" font-size="13" font-weight="600" fill="#2980b9">Python <tspan font-weight="400" fill="#777">(30× · 10MB)</tspan></text>
<circle cx="526.4" cy="325.4" r="7" fill="#d35400" fill-opacity="0.85" stroke="#fff" stroke-width="1.5"/>
<text x="537.4" y="329.4" text-anchor="start" font-size="13" font-weight="600" fill="#d35400">Ruby <tspan font-weight="400" fill="#777">(12× · 24MB)</tspan></text>
<circle cx="516.0" cy="323.2" r="7" fill="#c0392b" fill-opacity="0.85" stroke="#fff" stroke-width="1.5"/>
<text x="527.0" y="327.2" text-anchor="start" font-size="13" font-weight="600" fill="#c0392b">Brood <tspan font-weight="400" fill="#777">(12× · 24MB)</tspan></text>
<circle cx="70.0" cy="315.3" r="7" fill="#16a085" fill-opacity="0.85" stroke="#fff" stroke-width="1.5"/>
<text x="81.0" y="319.3" text-anchor="start" font-size="13" font-weight="600" fill="#16a085">.NET <tspan font-weight="400" fill="#777">(1× · 26MB)</tspan></text>
<circle cx="258.3" cy="245.8" r="7" fill="#27ae60" fill-opacity="0.85" stroke="#fff" stroke-width="1.5"/>
<text x="269.3" y="249.8" text-anchor="start" font-size="13" font-weight="600" fill="#27ae60">Node <tspan font-weight="400" fill="#777">(3× · 43MB)</tspan></text>
<circle cx="347.4" cy="98.3" r="7" fill="#8e44ad" fill-opacity="0.85" stroke="#fff" stroke-width="1.5"/>
<text x="358.4" y="102.3" text-anchor="start" font-size="13" font-weight="600" fill="#8e44ad">Elixir <tspan font-weight="400" fill="#777">(5× · 80MB)</tspan></text>
</svg>