<svg xmlns="http://www.w3.org/2000/svg" width="820" height="460" viewBox="0 0 820 460" font-family="system-ui,Segoe UI,Helvetica,Arial,sans-serif">
<rect width="820" height="460" fill="#ffffff"/>
<text x="410.0" y="24" text-anchor="middle" font-size="17" font-weight="700" fill="#222">Brood over time — each row vs its own first published run</text>
<text x="410.0" y="42" text-anchor="middle" font-size="12" fill="#777">lower is faster; 100% = that row's first appearance</text>
<line x1="60" y1="398.0" x2="670" y2="398.0" stroke="#eee"/>
<text x="52" y="402.0" text-anchor="end" font-size="11" fill="#555">0%</text>
<line x1="60" y1="324.0" x2="670" y2="324.0" stroke="#eee"/>
<text x="52" y="328.0" text-anchor="end" font-size="11" fill="#555">25%</text>
<line x1="60" y1="249.9" x2="670" y2="249.9" stroke="#eee"/>
<text x="52" y="253.9" text-anchor="end" font-size="11" fill="#555">50%</text>
<line x1="60" y1="175.9" x2="670" y2="175.9" stroke="#eee"/>
<text x="52" y="179.9" text-anchor="end" font-size="11" fill="#555">75%</text>
<line x1="60" y1="101.8" x2="670" y2="101.8" stroke="#eee"/>
<text x="52" y="105.8" text-anchor="end" font-size="11" fill="#555">100%</text>
<line x1="60" y1="101.8" x2="670" y2="101.8" stroke="#bbb" stroke-dasharray="4,3"/>
<text x="60.0" y="416" text-anchor="middle" font-size="10" fill="#555" transform="rotate(35 60.0 416)">06-08</text>
<text x="109.5" y="416" text-anchor="middle" font-size="10" fill="#555" transform="rotate(35 109.5 416)">06-11</text>
<text x="158.9" y="416" text-anchor="middle" font-size="10" fill="#555" transform="rotate(35 158.9 416)">06-14</text>
<text x="208.4" y="416" text-anchor="middle" font-size="10" fill="#555" transform="rotate(35 208.4 416)">06-17</text>
<text x="257.8" y="416" text-anchor="middle" font-size="10" fill="#555" transform="rotate(35 257.8 416)">06-21</text>
<text x="307.3" y="416" text-anchor="middle" font-size="10" fill="#555" transform="rotate(35 307.3 416)">06-28</text>
<text x="356.8" y="416" text-anchor="middle" font-size="10" fill="#555" transform="rotate(35 356.8 416)">07-03</text>
<text x="406.2" y="416" text-anchor="middle" font-size="10" fill="#555" transform="rotate(35 406.2 416)">07-11</text>
<text x="455.7" y="416" text-anchor="middle" font-size="10" fill="#555" transform="rotate(35 455.7 416)">07-15</text>
<text x="505.1" y="416" text-anchor="middle" font-size="10" fill="#555" transform="rotate(35 505.1 416)">07-24</text>
<text x="554.6" y="416" text-anchor="middle" font-size="10" fill="#555" transform="rotate(35 554.6 416)">07-28</text>
<text x="604.1" y="416" text-anchor="middle" font-size="10" fill="#555" transform="rotate(35 604.1 416)">08-02</text>
<text x="653.5" y="416" text-anchor="middle" font-size="10" fill="#555" transform="rotate(35 653.5 416)">08-10</text>
<text x="670.0" y="416" text-anchor="middle" font-size="10" fill="#555" transform="rotate(35 670.0 416)">08-13</text>
<polyline fill="none" stroke="#c0392b" stroke-width="2.2" stroke-opacity="0.9" points="554.6,101.8 571.1,228.8 587.6,268.2 604.1,256.5 620.5,279.5 637.0,290.5 653.5,300.2 670.0,299.8"/>
<circle cx="554.6" cy="101.8" r="2.6" fill="#c0392b"/>
<circle cx="571.1" cy="228.8" r="2.6" fill="#c0392b"/>
<circle cx="587.6" cy="268.2" r="2.6" fill="#c0392b"/>
<circle cx="604.1" cy="256.5" r="2.6" fill="#c0392b"/>
<circle cx="620.5" cy="279.5" r="2.6" fill="#c0392b"/>
<circle cx="637.0" cy="290.5" r="2.6" fill="#c0392b"/>
<circle cx="653.5" cy="300.2" r="2.6" fill="#c0392b"/>
<circle cx="670.0" cy="299.8" r="2.6" fill="#c0392b"/>
<polyline fill="none" stroke="#8e44ad" stroke-width="2.2" stroke-opacity="0.9" points="587.6,101.8 604.1,92.0 620.5,91.5 637.0,93.3 653.5,96.7 670.0,89.3"/>
<circle cx="587.6" cy="101.8" r="2.6" fill="#8e44ad"/>
<circle cx="604.1" cy="92.0" r="2.6" fill="#8e44ad"/>
<circle cx="620.5" cy="91.5" r="2.6" fill="#8e44ad"/>
<circle cx="637.0" cy="93.3" r="2.6" fill="#8e44ad"/>
<circle cx="653.5" cy="96.7" r="2.6" fill="#8e44ad"/>
<circle cx="670.0" cy="89.3" r="2.6" fill="#8e44ad"/>
<polyline fill="none" stroke="#2980b9" stroke-width="2.2" stroke-opacity="0.9" points="422.7,101.8 439.2,185.3 455.7,196.6 472.2,193.4 488.6,199.6 505.1,199.4 521.6,295.9 538.1,292.1 554.6,287.6 571.1,294.5 587.6,283.2 604.1,282.4 620.5,291.4 637.0,294.2 653.5,292.1 670.0,291.2"/>
<circle cx="422.7" cy="101.8" r="2.6" fill="#2980b9"/>
<circle cx="439.2" cy="185.3" r="2.6" fill="#2980b9"/>
<circle cx="455.7" cy="196.6" r="2.6" fill="#2980b9"/>
<circle cx="472.2" cy="193.4" r="2.6" fill="#2980b9"/>
<circle cx="488.6" cy="199.6" r="2.6" fill="#2980b9"/>
<circle cx="505.1" cy="199.4" r="2.6" fill="#2980b9"/>
<circle cx="521.6" cy="295.9" r="2.6" fill="#2980b9"/>
<circle cx="538.1" cy="292.1" r="2.6" fill="#2980b9"/>
<circle cx="554.6" cy="287.6" r="2.6" fill="#2980b9"/>
<circle cx="571.1" cy="294.5" r="2.6" fill="#2980b9"/>
<circle cx="587.6" cy="283.2" r="2.6" fill="#2980b9"/>
<circle cx="604.1" cy="282.4" r="2.6" fill="#2980b9"/>
<circle cx="620.5" cy="291.4" r="2.6" fill="#2980b9"/>
<circle cx="637.0" cy="294.2" r="2.6" fill="#2980b9"/>
<circle cx="653.5" cy="292.1" r="2.6" fill="#2980b9"/>
<circle cx="670.0" cy="291.2" r="2.6" fill="#2980b9"/>
<polyline fill="none" stroke="#27ae60" stroke-width="2.2" stroke-opacity="0.9" points="422.7,101.8 439.2,145.8 455.7,146.1 472.2,143.2 488.6,158.1 505.1,174.8 521.6,223.5 538.1,215.6 554.6,212.8 571.1,209.3 587.6,200.9 604.1,209.0 620.5,204.5 637.0,202.9 653.5,208.5 670.0,205.5"/>
<circle cx="422.7" cy="101.8" r="2.6" fill="#27ae60"/>
<circle cx="439.2" cy="145.8" r="2.6" fill="#27ae60"/>
<circle cx="455.7" cy="146.1" r="2.6" fill="#27ae60"/>
<circle cx="472.2" cy="143.2" r="2.6" fill="#27ae60"/>
<circle cx="488.6" cy="158.1" r="2.6" fill="#27ae60"/>
<circle cx="505.1" cy="174.8" r="2.6" fill="#27ae60"/>
<circle cx="521.6" cy="223.5" r="2.6" fill="#27ae60"/>
<circle cx="538.1" cy="215.6" r="2.6" fill="#27ae60"/>
<circle cx="554.6" cy="212.8" r="2.6" fill="#27ae60"/>
<circle cx="571.1" cy="209.3" r="2.6" fill="#27ae60"/>
<circle cx="587.6" cy="200.9" r="2.6" fill="#27ae60"/>
<circle cx="604.1" cy="209.0" r="2.6" fill="#27ae60"/>
<circle cx="620.5" cy="204.5" r="2.6" fill="#27ae60"/>
<circle cx="637.0" cy="202.9" r="2.6" fill="#27ae60"/>
<circle cx="653.5" cy="208.5" r="2.6" fill="#27ae60"/>
<circle cx="670.0" cy="205.5" r="2.6" fill="#27ae60"/>
<polyline fill="none" stroke="#d35400" stroke-width="2.2" stroke-opacity="0.9" points="158.9,101.8 175.4,81.3 191.9,168.0 208.4,164.2 224.9,264.0 241.4,285.2 257.8,282.7 274.3,286.9 290.8,280.4 307.3,277.8 323.8,282.0 340.3,362.7 356.8,362.4 373.2,359.9 389.7,360.9 406.2,359.9 422.7,360.8 439.2,360.6 455.7,359.8 472.2,357.8 488.6,357.4 505.1,368.8 521.6,368.0 538.1,367.0 554.6,366.0 571.1,365.6 587.6,365.0 604.1,364.9 620.5,365.1 637.0,364.5 653.5,364.9 670.0,364.5"/>
<circle cx="158.9" cy="101.8" r="2.6" fill="#d35400"/>
<circle cx="175.4" cy="81.3" r="2.6" fill="#d35400"/>
<circle cx="191.9" cy="168.0" r="2.6" fill="#d35400"/>
<circle cx="208.4" cy="164.2" r="2.6" fill="#d35400"/>
<circle cx="224.9" cy="264.0" r="2.6" fill="#d35400"/>
<circle cx="241.4" cy="285.2" r="2.6" fill="#d35400"/>
<circle cx="257.8" cy="282.7" r="2.6" fill="#d35400"/>
<circle cx="274.3" cy="286.9" r="2.6" fill="#d35400"/>
<circle cx="290.8" cy="280.4" r="2.6" fill="#d35400"/>
<circle cx="307.3" cy="277.8" r="2.6" fill="#d35400"/>
<circle cx="323.8" cy="282.0" r="2.6" fill="#d35400"/>
<circle cx="340.3" cy="362.7" r="2.6" fill="#d35400"/>
<circle cx="356.8" cy="362.4" r="2.6" fill="#d35400"/>
<circle cx="373.2" cy="359.9" r="2.6" fill="#d35400"/>
<circle cx="389.7" cy="360.9" r="2.6" fill="#d35400"/>
<circle cx="406.2" cy="359.9" r="2.6" fill="#d35400"/>
<circle cx="422.7" cy="360.8" r="2.6" fill="#d35400"/>
<circle cx="439.2" cy="360.6" r="2.6" fill="#d35400"/>
<circle cx="455.7" cy="359.8" r="2.6" fill="#d35400"/>
<circle cx="472.2" cy="357.8" r="2.6" fill="#d35400"/>
<circle cx="488.6" cy="357.4" r="2.6" fill="#d35400"/>
<circle cx="505.1" cy="368.8" r="2.6" fill="#d35400"/>
<circle cx="521.6" cy="368.0" r="2.6" fill="#d35400"/>
<circle cx="538.1" cy="367.0" r="2.6" fill="#d35400"/>
<circle cx="554.6" cy="366.0" r="2.6" fill="#d35400"/>
<circle cx="571.1" cy="365.6" r="2.6" fill="#d35400"/>
<circle cx="587.6" cy="365.0" r="2.6" fill="#d35400"/>
<circle cx="604.1" cy="364.9" r="2.6" fill="#d35400"/>
<circle cx="620.5" cy="365.1" r="2.6" fill="#d35400"/>
<circle cx="637.0" cy="364.5" r="2.6" fill="#d35400"/>
<circle cx="653.5" cy="364.9" r="2.6" fill="#d35400"/>
<circle cx="670.0" cy="364.5" r="2.6" fill="#d35400"/>
<polyline fill="none" stroke="#16a085" stroke-width="2.2" stroke-opacity="0.9" points="158.9,101.8 175.4,79.5 191.9,112.6 208.4,124.2 224.9,316.9 241.4,316.8 257.8,303.6 274.3,320.5 290.8,308.4 307.3,310.4 323.8,327.0 340.3,326.0 356.8,327.8 373.2,321.4 389.7,323.6 406.2,319.7 422.7,319.1 439.2,321.9 455.7,314.9 472.2,307.7 488.6,314.3 505.1,328.9 521.6,325.9 538.1,323.5 554.6,324.8 571.1,323.3 587.6,317.7 604.1,319.1 620.5,318.2 637.0,318.0 653.5,320.3 670.0,321.5"/>
<circle cx="158.9" cy="101.8" r="2.6" fill="#16a085"/>
<circle cx="175.4" cy="79.5" r="2.6" fill="#16a085"/>
<circle cx="191.9" cy="112.6" r="2.6" fill="#16a085"/>
<circle cx="208.4" cy="124.2" r="2.6" fill="#16a085"/>
<circle cx="224.9" cy="316.9" r="2.6" fill="#16a085"/>
<circle cx="241.4" cy="316.8" r="2.6" fill="#16a085"/>
<circle cx="257.8" cy="303.6" r="2.6" fill="#16a085"/>
<circle cx="274.3" cy="320.5" r="2.6" fill="#16a085"/>
<circle cx="290.8" cy="308.4" r="2.6" fill="#16a085"/>
<circle cx="307.3" cy="310.4" r="2.6" fill="#16a085"/>
<circle cx="323.8" cy="327.0" r="2.6" fill="#16a085"/>
<circle cx="340.3" cy="326.0" r="2.6" fill="#16a085"/>
<circle cx="356.8" cy="327.8" r="2.6" fill="#16a085"/>
<circle cx="373.2" cy="321.4" r="2.6" fill="#16a085"/>
<circle cx="389.7" cy="323.6" r="2.6" fill="#16a085"/>
<circle cx="406.2" cy="319.7" r="2.6" fill="#16a085"/>
<circle cx="422.7" cy="319.1" r="2.6" fill="#16a085"/>
<circle cx="439.2" cy="321.9" r="2.6" fill="#16a085"/>
<circle cx="455.7" cy="314.9" r="2.6" fill="#16a085"/>
<circle cx="472.2" cy="307.7" r="2.6" fill="#16a085"/>
<circle cx="488.6" cy="314.3" r="2.6" fill="#16a085"/>
<circle cx="505.1" cy="328.9" r="2.6" fill="#16a085"/>
<circle cx="521.6" cy="325.9" r="2.6" fill="#16a085"/>
<circle cx="538.1" cy="323.5" r="2.6" fill="#16a085"/>
<circle cx="554.6" cy="324.8" r="2.6" fill="#16a085"/>
<circle cx="571.1" cy="323.3" r="2.6" fill="#16a085"/>
<circle cx="587.6" cy="317.7" r="2.6" fill="#16a085"/>
<circle cx="604.1" cy="319.1" r="2.6" fill="#16a085"/>
<circle cx="620.5" cy="318.2" r="2.6" fill="#16a085"/>
<circle cx="637.0" cy="318.0" r="2.6" fill="#16a085"/>
<circle cx="653.5" cy="320.3" r="2.6" fill="#16a085"/>
<circle cx="670.0" cy="321.5" r="2.6" fill="#16a085"/>
<text x="680" y="93.3" font-size="12" font-weight="600" fill="#8e44ad">supervisor <tspan font-weight="400" fill="#777">104%</tspan></text>
<text x="680" y="209.5" font-size="12" font-weight="600" fill="#27ae60">pingpong <tspan font-weight="400" fill="#777">65%</tspan></text>
<text x="680" y="295.2" font-size="12" font-weight="600" fill="#2980b9">ring <tspan font-weight="400" fill="#777">36%</tspan></text>
<text x="680" y="310.2" font-size="12" font-weight="600" fill="#c0392b">spawn-live <tspan font-weight="400" fill="#777">33%</tspan></text>
<text x="680" y="325.5" font-size="12" font-weight="600" fill="#16a085">bintree <tspan font-weight="400" fill="#777">26%</tspan></text>
<text x="680" y="368.5" font-size="12" font-weight="600" fill="#d35400">fib <tspan font-weight="400" fill="#777">11%</tspan></text>
<text x="365.0" y="450" text-anchor="middle" font-size="12" fill="#333">published run date — the field drifts ~10% run to run, so read shapes not wiggles</text>
</svg>