<svg xmlns="http://www.w3.org/2000/svg" width="820" height="460" viewBox="0 0 820 460" font-family="system-ui,Segoe UI,Helvetica,Arial,sans-serif">
<rect width="820" height="460" fill="#ffffff"/>
<text x="410.0" y="24" text-anchor="middle" font-size="17" font-weight="700" fill="#222">Brood over time — each row vs its own first published run</text>
<text x="410.0" y="42" text-anchor="middle" font-size="12" fill="#777">lower is faster; 100% = that row's first appearance</text>
<line x1="60" y1="398.0" x2="670" y2="398.0" stroke="#eee"/>
<text x="52" y="402.0" text-anchor="end" font-size="11" fill="#555">0%</text>
<line x1="60" y1="324.4" x2="670" y2="324.4" stroke="#eee"/>
<text x="52" y="328.4" text-anchor="end" font-size="11" fill="#555">25%</text>
<line x1="60" y1="250.8" x2="670" y2="250.8" stroke="#eee"/>
<text x="52" y="254.8" text-anchor="end" font-size="11" fill="#555">50%</text>
<line x1="60" y1="177.2" x2="670" y2="177.2" stroke="#eee"/>
<text x="52" y="181.2" text-anchor="end" font-size="11" fill="#555">75%</text>
<line x1="60" y1="103.6" x2="670" y2="103.6" stroke="#eee"/>
<text x="52" y="107.6" text-anchor="end" font-size="11" fill="#555">100%</text>
<line x1="60" y1="103.6" x2="670" y2="103.6" stroke="#bbb" stroke-dasharray="4,3"/>
<text x="60.0" y="416" text-anchor="middle" font-size="10" fill="#555" transform="rotate(35 60.0 416)">06-08</text>
<text x="118.1" y="416" text-anchor="middle" font-size="10" fill="#555" transform="rotate(35 118.1 416)">06-12</text>
<text x="176.2" y="416" text-anchor="middle" font-size="10" fill="#555" transform="rotate(35 176.2 416)">06-16</text>
<text x="234.3" y="416" text-anchor="middle" font-size="10" fill="#555" transform="rotate(35 234.3 416)">06-21</text>
<text x="292.4" y="416" text-anchor="middle" font-size="10" fill="#555" transform="rotate(35 292.4 416)">07-01</text>
<text x="350.5" y="416" text-anchor="middle" font-size="10" fill="#555" transform="rotate(35 350.5 416)">07-06</text>
<text x="408.6" y="416" text-anchor="middle" font-size="10" fill="#555" transform="rotate(35 408.6 416)">07-15</text>
<text x="466.7" y="416" text-anchor="middle" font-size="10" fill="#555" transform="rotate(35 466.7 416)">07-26</text>
<text x="524.8" y="416" text-anchor="middle" font-size="10" fill="#555" transform="rotate(35 524.8 416)">07-30</text>
<text x="582.9" y="416" text-anchor="middle" font-size="10" fill="#555" transform="rotate(35 582.9 416)">08-10</text>
<text x="641.0" y="416" text-anchor="middle" font-size="10" fill="#555" transform="rotate(35 641.0 416)">08-26</text>
<text x="670.0" y="416" text-anchor="middle" font-size="10" fill="#555" transform="rotate(35 670.0 416)">08-28</text>
<polyline fill="none" stroke="#c0392b" stroke-width="2.2" stroke-opacity="0.9" points="495.7,103.6 510.2,229.8 524.8,269.0 539.3,257.3 553.8,280.3 568.3,291.2 582.9,300.8 597.4,300.4 611.9,299.4 626.4,318.5 641.0,309.3 655.5,321.5 670.0,315.2"/>
<circle cx="495.7" cy="103.6" r="2.6" fill="#c0392b"/>
<circle cx="510.2" cy="229.8" r="2.6" fill="#c0392b"/>
<circle cx="524.8" cy="269.0" r="2.6" fill="#c0392b"/>
<circle cx="539.3" cy="257.3" r="2.6" fill="#c0392b"/>
<circle cx="553.8" cy="280.3" r="2.6" fill="#c0392b"/>
<circle cx="568.3" cy="291.2" r="2.6" fill="#c0392b"/>
<circle cx="582.9" cy="300.8" r="2.6" fill="#c0392b"/>
<circle cx="597.4" cy="300.4" r="2.6" fill="#c0392b"/>
<circle cx="611.9" cy="299.4" r="2.6" fill="#c0392b"/>
<circle cx="626.4" cy="318.5" r="2.6" fill="#c0392b"/>
<circle cx="641.0" cy="309.3" r="2.6" fill="#c0392b"/>
<circle cx="655.5" cy="321.5" r="2.6" fill="#c0392b"/>
<circle cx="670.0" cy="315.2" r="2.6" fill="#c0392b"/>
<polyline fill="none" stroke="#8e44ad" stroke-width="2.2" stroke-opacity="0.9" points="524.8,103.6 539.3,93.8 553.8,93.3 568.3,95.1 582.9,98.5 597.4,91.1 611.9,88.7 626.4,107.9 641.0,95.1 655.5,102.2 670.0,79.5"/>
<circle cx="524.8" cy="103.6" r="2.6" fill="#8e44ad"/>
<circle cx="539.3" cy="93.8" r="2.6" fill="#8e44ad"/>
<circle cx="553.8" cy="93.3" r="2.6" fill="#8e44ad"/>
<circle cx="568.3" cy="95.1" r="2.6" fill="#8e44ad"/>
<circle cx="582.9" cy="98.5" r="2.6" fill="#8e44ad"/>
<circle cx="597.4" cy="91.1" r="2.6" fill="#8e44ad"/>
<circle cx="611.9" cy="88.7" r="2.6" fill="#8e44ad"/>
<circle cx="626.4" cy="107.9" r="2.6" fill="#8e44ad"/>
<circle cx="641.0" cy="95.1" r="2.6" fill="#8e44ad"/>
<circle cx="655.5" cy="102.2" r="2.6" fill="#8e44ad"/>
<circle cx="670.0" cy="79.5" r="2.6" fill="#8e44ad"/>
<polyline fill="none" stroke="#2980b9" stroke-width="2.2" stroke-opacity="0.9" points="379.5,103.6 394.0,186.6 408.6,197.8 423.1,194.6 437.6,200.8 452.1,200.6 466.7,296.5 481.2,292.7 495.7,288.2 510.2,295.2 524.8,283.9 539.3,283.1 553.8,292.0 568.3,294.8 582.9,292.7 597.4,291.8 611.9,290.1 626.4,293.5 641.0,273.6 655.5,298.6 670.0,286.9"/>
<circle cx="379.5" cy="103.6" r="2.6" fill="#2980b9"/>
<circle cx="394.0" cy="186.6" r="2.6" fill="#2980b9"/>
<circle cx="408.6" cy="197.8" r="2.6" fill="#2980b9"/>
<circle cx="423.1" cy="194.6" r="2.6" fill="#2980b9"/>
<circle cx="437.6" cy="200.8" r="2.6" fill="#2980b9"/>
<circle cx="452.1" cy="200.6" r="2.6" fill="#2980b9"/>
<circle cx="466.7" cy="296.5" r="2.6" fill="#2980b9"/>
<circle cx="481.2" cy="292.7" r="2.6" fill="#2980b9"/>
<circle cx="495.7" cy="288.2" r="2.6" fill="#2980b9"/>
<circle cx="510.2" cy="295.2" r="2.6" fill="#2980b9"/>
<circle cx="524.8" cy="283.9" r="2.6" fill="#2980b9"/>
<circle cx="539.3" cy="283.1" r="2.6" fill="#2980b9"/>
<circle cx="553.8" cy="292.0" r="2.6" fill="#2980b9"/>
<circle cx="568.3" cy="294.8" r="2.6" fill="#2980b9"/>
<circle cx="582.9" cy="292.7" r="2.6" fill="#2980b9"/>
<circle cx="597.4" cy="291.8" r="2.6" fill="#2980b9"/>
<circle cx="611.9" cy="290.1" r="2.6" fill="#2980b9"/>
<circle cx="626.4" cy="293.5" r="2.6" fill="#2980b9"/>
<circle cx="641.0" cy="273.6" r="2.6" fill="#2980b9"/>
<circle cx="655.5" cy="298.6" r="2.6" fill="#2980b9"/>
<circle cx="670.0" cy="286.9" r="2.6" fill="#2980b9"/>
<polyline fill="none" stroke="#27ae60" stroke-width="2.2" stroke-opacity="0.9" points="379.5,103.6 394.0,147.3 408.6,147.6 423.1,144.7 437.6,159.5 452.1,176.2 466.7,224.6 481.2,216.7 495.7,213.9 510.2,210.4 524.8,202.1 539.3,210.1 553.8,205.7 568.3,204.0 582.9,209.7 597.4,206.6 611.9,201.5 626.4,225.8 641.0,218.9 655.5,237.3 670.0,221.1"/>
<circle cx="379.5" cy="103.6" r="2.6" fill="#27ae60"/>
<circle cx="394.0" cy="147.3" r="2.6" fill="#27ae60"/>
<circle cx="408.6" cy="147.6" r="2.6" fill="#27ae60"/>
<circle cx="423.1" cy="144.7" r="2.6" fill="#27ae60"/>
<circle cx="437.6" cy="159.5" r="2.6" fill="#27ae60"/>
<circle cx="452.1" cy="176.2" r="2.6" fill="#27ae60"/>
<circle cx="466.7" cy="224.6" r="2.6" fill="#27ae60"/>
<circle cx="481.2" cy="216.7" r="2.6" fill="#27ae60"/>
<circle cx="495.7" cy="213.9" r="2.6" fill="#27ae60"/>
<circle cx="510.2" cy="210.4" r="2.6" fill="#27ae60"/>
<circle cx="524.8" cy="202.1" r="2.6" fill="#27ae60"/>
<circle cx="539.3" cy="210.1" r="2.6" fill="#27ae60"/>
<circle cx="553.8" cy="205.7" r="2.6" fill="#27ae60"/>
<circle cx="568.3" cy="204.0" r="2.6" fill="#27ae60"/>
<circle cx="582.9" cy="209.7" r="2.6" fill="#27ae60"/>
<circle cx="597.4" cy="206.6" r="2.6" fill="#27ae60"/>
<circle cx="611.9" cy="201.5" r="2.6" fill="#27ae60"/>
<circle cx="626.4" cy="225.8" r="2.6" fill="#27ae60"/>
<circle cx="641.0" cy="218.9" r="2.6" fill="#27ae60"/>
<circle cx="655.5" cy="237.3" r="2.6" fill="#27ae60"/>
<circle cx="670.0" cy="221.1" r="2.6" fill="#27ae60"/>
<polyline fill="none" stroke="#d35400" stroke-width="2.2" stroke-opacity="0.9" points="147.1,103.6 161.7,83.2 176.2,169.4 190.7,165.6 205.2,264.8 219.8,285.9 234.3,283.4 248.8,287.6 263.3,281.1 277.9,278.5 292.4,282.7 306.9,362.9 321.4,362.6 336.0,360.2 350.5,361.1 365.0,360.2 379.5,361.0 394.0,360.8 408.6,360.0 423.1,358.0 437.6,357.6 452.1,368.9 466.7,368.2 481.2,367.2 495.7,366.2 510.2,365.8 524.8,365.2 539.3,365.1 553.8,365.3 568.3,364.7 582.9,365.1 597.4,364.7 611.9,365.5 626.4,355.8 641.0,348.1 655.5,360.6 670.0,356.0"/>
<circle cx="147.1" cy="103.6" r="2.6" fill="#d35400"/>
<circle cx="161.7" cy="83.2" r="2.6" fill="#d35400"/>
<circle cx="176.2" cy="169.4" r="2.6" fill="#d35400"/>
<circle cx="190.7" cy="165.6" r="2.6" fill="#d35400"/>
<circle cx="205.2" cy="264.8" r="2.6" fill="#d35400"/>
<circle cx="219.8" cy="285.9" r="2.6" fill="#d35400"/>
<circle cx="234.3" cy="283.4" r="2.6" fill="#d35400"/>
<circle cx="248.8" cy="287.6" r="2.6" fill="#d35400"/>
<circle cx="263.3" cy="281.1" r="2.6" fill="#d35400"/>
<circle cx="277.9" cy="278.5" r="2.6" fill="#d35400"/>
<circle cx="292.4" cy="282.7" r="2.6" fill="#d35400"/>
<circle cx="306.9" cy="362.9" r="2.6" fill="#d35400"/>
<circle cx="321.4" cy="362.6" r="2.6" fill="#d35400"/>
<circle cx="336.0" cy="360.2" r="2.6" fill="#d35400"/>
<circle cx="350.5" cy="361.1" r="2.6" fill="#d35400"/>
<circle cx="365.0" cy="360.2" r="2.6" fill="#d35400"/>
<circle cx="379.5" cy="361.0" r="2.6" fill="#d35400"/>
<circle cx="394.0" cy="360.8" r="2.6" fill="#d35400"/>
<circle cx="408.6" cy="360.0" r="2.6" fill="#d35400"/>
<circle cx="423.1" cy="358.0" r="2.6" fill="#d35400"/>
<circle cx="437.6" cy="357.6" r="2.6" fill="#d35400"/>
<circle cx="452.1" cy="368.9" r="2.6" fill="#d35400"/>
<circle cx="466.7" cy="368.2" r="2.6" fill="#d35400"/>
<circle cx="481.2" cy="367.2" r="2.6" fill="#d35400"/>
<circle cx="495.7" cy="366.2" r="2.6" fill="#d35400"/>
<circle cx="510.2" cy="365.8" r="2.6" fill="#d35400"/>
<circle cx="524.8" cy="365.2" r="2.6" fill="#d35400"/>
<circle cx="539.3" cy="365.1" r="2.6" fill="#d35400"/>
<circle cx="553.8" cy="365.3" r="2.6" fill="#d35400"/>
<circle cx="568.3" cy="364.7" r="2.6" fill="#d35400"/>
<circle cx="582.9" cy="365.1" r="2.6" fill="#d35400"/>
<circle cx="597.4" cy="364.7" r="2.6" fill="#d35400"/>
<circle cx="611.9" cy="365.5" r="2.6" fill="#d35400"/>
<circle cx="626.4" cy="355.8" r="2.6" fill="#d35400"/>
<circle cx="641.0" cy="348.1" r="2.6" fill="#d35400"/>
<circle cx="655.5" cy="360.6" r="2.6" fill="#d35400"/>
<circle cx="670.0" cy="356.0" r="2.6" fill="#d35400"/>
<polyline fill="none" stroke="#16a085" stroke-width="2.2" stroke-opacity="0.9" points="147.1,103.6 161.7,81.4 176.2,114.3 190.7,125.9 205.2,317.4 219.8,317.3 234.3,304.2 248.8,321.0 263.3,308.9 277.9,310.9 292.4,327.5 306.9,326.5 321.4,328.3 336.0,321.9 350.5,324.0 365.0,320.2 379.5,319.6 394.0,322.3 408.6,315.4 423.1,308.2 437.6,314.8 452.1,329.4 466.7,326.4 481.2,323.9 495.7,325.3 510.2,323.8 524.8,318.2 539.3,319.6 553.8,318.6 568.3,318.5 582.9,320.7 597.4,321.9 611.9,321.4 626.4,312.7 641.0,297.4 655.5,321.6 670.0,334.2"/>
<circle cx="147.1" cy="103.6" r="2.6" fill="#16a085"/>
<circle cx="161.7" cy="81.4" r="2.6" fill="#16a085"/>
<circle cx="176.2" cy="114.3" r="2.6" fill="#16a085"/>
<circle cx="190.7" cy="125.9" r="2.6" fill="#16a085"/>
<circle cx="205.2" cy="317.4" r="2.6" fill="#16a085"/>
<circle cx="219.8" cy="317.3" r="2.6" fill="#16a085"/>
<circle cx="234.3" cy="304.2" r="2.6" fill="#16a085"/>
<circle cx="248.8" cy="321.0" r="2.6" fill="#16a085"/>
<circle cx="263.3" cy="308.9" r="2.6" fill="#16a085"/>
<circle cx="277.9" cy="310.9" r="2.6" fill="#16a085"/>
<circle cx="292.4" cy="327.5" r="2.6" fill="#16a085"/>
<circle cx="306.9" cy="326.5" r="2.6" fill="#16a085"/>
<circle cx="321.4" cy="328.3" r="2.6" fill="#16a085"/>
<circle cx="336.0" cy="321.9" r="2.6" fill="#16a085"/>
<circle cx="350.5" cy="324.0" r="2.6" fill="#16a085"/>
<circle cx="365.0" cy="320.2" r="2.6" fill="#16a085"/>
<circle cx="379.5" cy="319.6" r="2.6" fill="#16a085"/>
<circle cx="394.0" cy="322.3" r="2.6" fill="#16a085"/>
<circle cx="408.6" cy="315.4" r="2.6" fill="#16a085"/>
<circle cx="423.1" cy="308.2" r="2.6" fill="#16a085"/>
<circle cx="437.6" cy="314.8" r="2.6" fill="#16a085"/>
<circle cx="452.1" cy="329.4" r="2.6" fill="#16a085"/>
<circle cx="466.7" cy="326.4" r="2.6" fill="#16a085"/>
<circle cx="481.2" cy="323.9" r="2.6" fill="#16a085"/>
<circle cx="495.7" cy="325.3" r="2.6" fill="#16a085"/>
<circle cx="510.2" cy="323.8" r="2.6" fill="#16a085"/>
<circle cx="524.8" cy="318.2" r="2.6" fill="#16a085"/>
<circle cx="539.3" cy="319.6" r="2.6" fill="#16a085"/>
<circle cx="553.8" cy="318.6" r="2.6" fill="#16a085"/>
<circle cx="568.3" cy="318.5" r="2.6" fill="#16a085"/>
<circle cx="582.9" cy="320.7" r="2.6" fill="#16a085"/>
<circle cx="597.4" cy="321.9" r="2.6" fill="#16a085"/>
<circle cx="611.9" cy="321.4" r="2.6" fill="#16a085"/>
<circle cx="626.4" cy="312.7" r="2.6" fill="#16a085"/>
<circle cx="641.0" cy="297.4" r="2.6" fill="#16a085"/>
<circle cx="655.5" cy="321.6" r="2.6" fill="#16a085"/>
<circle cx="670.0" cy="334.2" r="2.6" fill="#16a085"/>
<text x="680" y="83.5" font-size="12" font-weight="600" fill="#8e44ad">supervisor <tspan font-weight="400" fill="#777">108%</tspan></text>
<text x="680" y="225.1" font-size="12" font-weight="600" fill="#27ae60">pingpong <tspan font-weight="400" fill="#777">60%</tspan></text>
<text x="680" y="290.9" font-size="12" font-weight="600" fill="#2980b9">ring <tspan font-weight="400" fill="#777">38%</tspan></text>
<text x="680" y="319.2" font-size="12" font-weight="600" fill="#c0392b">spawn-live <tspan font-weight="400" fill="#777">28%</tspan></text>
<text x="680" y="338.2" font-size="12" font-weight="600" fill="#16a085">bintree <tspan font-weight="400" fill="#777">22%</tspan></text>
<text x="680" y="360.0" font-size="12" font-weight="600" fill="#d35400">fib <tspan font-weight="400" fill="#777">14%</tspan></text>
<text x="365.0" y="450" text-anchor="middle" font-size="12" fill="#333">published run date — the field drifts ~10% run to run, so read shapes not wiggles</text>
</svg>